<svg xmlns="http://www.w3.org/2000/svg" viewBox="0 0 48 48" fill="none">
  <rect width="48" height="48" rx="12" fill="#FAD0E2"/>
  <ellipse cx="24" cy="11" rx="6.5" ry="9.5" fill="#FFDCE9" transform="rotate(0 24 24)"/>
  <ellipse cx="24" cy="11" rx="6.5" ry="9.5" fill="#FFDCE9" transform="rotate(72 24 24)"/>
  <ellipse cx="24" cy="11" rx="6.5" ry="9.5" fill="#FFDCE9" transform="rotate(144 24 24)"/>
  <ellipse cx="24" cy="11" rx="6.5" ry="9.5" fill="#FFDCE9" transform="rotate(216 24 24)"/>
  <ellipse cx="24" cy="11" rx="6.5" ry="9.5" fill="#FFDCE9" transform="rotate(288 24 24)"/>
  <path d="M24 21.5c-1.4 0-2.5 1.1-2.5 2.5 0 1.8 2.5 4.5 2.5 4.5s2.5-2.7 2.5-4.5c0-1.4-1.1-2.5-2.5-2.5z" fill="#C42D6E"/>
</svg>
